<svg xmlns="http://www.w3.org/2000/svg" viewBox="0 0 256 256">
  <defs>
    <linearGradient id="g" x1="0%" x2="100%" y1="0%" y2="100%">
      <stop offset="0%" stop-color="#fb7185" />
      <stop offset="100%" stop-color="#f59e0b" />
    </linearGradient>
  </defs>
  <rect width="256" height="256" rx="56" fill="#0f172a" />
  <path d="M56 144c26-58 62-88 108-88 13 0 25 2 36 7-25 18-40 41-47 71 16 4 30 13 42 27-12 10-26 17-41 20-34 7-67-6-98-37z" fill="url(#g)" />
  <path d="M92 188c11-25 24-40 41-47-10-9-17-21-22-37 25 2 44 14 58 35 7-6 16-10 27-12-3 13-9 25-18 35-22 25-51 34-86 26z" fill="#f8fafc" opacity=".9" />
</svg>

